# MagicaVoxel @ Ephtracy

# group
o 

# material
mtllib brigerotation.mtl
usemtl palette

# normals
vn -1 0 0
vn 1 0 0
vn 0 0 1
vn 0 0 -1
vn 0 -1 0
vn 0 1 0

# texcoords
vt 0.939453 0.5
vt 0.970703 0.5
vt 0.974609 0.5
vt 0.978516 0.5

# verts
v -0.7 1 -0.5
v -0.7 1 -0.6
v -0.7 1.1 -0.4
v -0.7 1.1 -0.5
v -0.7 1.2 -0.3
v -0.7 1.2 -0.4
v -0.7 1.2 -0.5
v -0.7 1.3 -0.2
v -0.7 1.3 -0.3
v -0.7 1.3 -0.4
v -0.7 1.4 -0.1
v -0.7 1.4 -0.2
v -0.7 1.4 -0.3
v -0.7 1.5 -5.96046e-08
v -0.7 1.5 -0.1
v -0.7 1.5 -0.2
v -0.7 1.6 0.0999999
v -0.7 1.6 -5.96046e-08
v -0.7 1.6 -0.1
v -0.7 1.6 -0.5
v -0.7 1.7 0.0999999
v -0.7 1.7 -0.6
v -0.6 1.6 0.2
v -0.6 1.6 0.0999999
v -0.6 1.7 0.2
v -0.6 1.7 0.0999999
v -0.5 1.6 0.4
v -0.5 1.6 0.2
v -0.5 1.7 0.4
v -0.5 1.7 0.2
v -0.4 1.6 0.5
v -0.4 1.6 0.4
v -0.4 1.7 0.5
v -0.4 1.7 0.4
v -0.3 1.6 0.6
v -0.3 1.6 0.5
v -0.3 1.7 0.6
v -0.3 1.7 0.5
v -0.2 1.4 -0.5
v -0.2 1.4 -0.6
v -0.2 1.5 0.6
v -0.2 1.5 0.5
v -0.2 1.5 -0.5
v -0.2 1.5 -0.6
v -0.2 1.6 0.6
v -0.2 1.6 0.5
v -0.1 1 -0.5
v -0.1 1 -0.6
v -0.1 1.4 0.6
v -0.1 1.4 0.5
v -0.1 1.4 -0.5
v -0.1 1.4 -0.6
v -0.1 1.5 0.6
v -0.1 1.5 0.5
v 5.96046e-08 1.3 0.6
v 5.96046e-08 1.3 0.5
v 5.96046e-08 1.3 -0.4
v 5.96046e-08 1.3 -0.5
v 5.96046e-08 1.4 0.6
v 5.96046e-08 1.4 0.5
v 5.96046e-08 1.4 -0.4
v 5.96046e-08 1.4 -0.5
v 5.96046e-08 1.6 -0.4
v 5.96046e-08 1.6 -0.5
v 0.1 1.2 0.6
v 0.1 1.2 0.5
v 0.1 1.3 0.6
v 0.1 1.3 0.5
v 0.1 1.4 -0.2
v 0.1 1.4 -0.4
v 0.1 1.5 -0.2
v 0.1 1.5 -0.4
v 0.1 1.6 -0.2
v 0.1 1.6 -0.4
v 0.2 1.1 0.6
v 0.2 1.1 0.5
v 0.2 1.2 0.6
v 0.2 1.2 0.5
v 0.2 1.3 -0.1
v 0.2 1.3 -0.2
v 0.2 1.4 -0.1
v 0.2 1.4 -0.2
v 0.2 1.5 -0.2
v 0.2 1.6 -0.1
v 0.2 1.6 -0.2
v 0.3 1 0.6
v 0.3 1 0.5
v 0.3 1 0.4
v 0.3 1 -5.96046e-08
v 0.3 1 -0.1
v 0.3 1 -0.2
v 0.3 1.1 0.6
v 0.3 1.1 0.5
v 0.3 1.2 0.5
v 0.3 1.3 -0.1
v 0.3 1.3 -0.2
v 0.3 1.4 0.4
v 0.3 1.4 0.3
v 0.3 1.4 0.0999999
v 0.3 1.4 -5.96046e-08
v 0.3 1.4 -0.1
v 0.3 1.5 0.3
v 0.3 1.5 0.0999999
v 0.3 1.6 0.5
v 0.3 1.6 0.2
v 0.3 1.6 -0.1
v -0.6 1.1 -0.4
v -0.6 1.1 -0.5
v -0.6 1.2 -0.3
v -0.6 1.2 -0.4
v -0.6 1.2 -0.5
v -0.6 1.3 -0.2
v -0.6 1.3 -0.3
v -0.6 1.3 -0.4
v -0.6 1.4 -0.1
v -0.6 1.4 -0.2
v -0.6 1.4 -0.3
v -0.6 1.5 -5.96046e-08
v -0.6 1.5 -0.1
v -0.6 1.5 -0.2
v -0.6 1.6 -5.96046e-08
v -0.6 1.6 -0.1
v -0.6 1.6 -0.2
v -0.6 1.6 -0.3
v -0.6 1.6 -0.5
v -0.5 1 -0.5
v -0.5 1 -0.6
v -0.5 1.4 -0.5
v -0.5 1.4 -0.6
v -0.4 1.4 -0.5
v -0.4 1.4 -0.6
v -0.4 1.5 -0.5
v -0.4 1.5 -0.6
v 0.1 1 -0.5
v 0.1 1 -0.6
v 0.1 1.3 -0.4
v 0.1 1.3 -0.5
v 0.1 1.4 -0.4
v 0.1 1.4 -0.5
v 0.1 1.5 -0.4
v 0.1 1.6 -0.4
v 0.1 1.6 -0.5
v 0.1 1.7 -0.4
v 0.1 1.7 -0.6
v 0.2 1.4 -0.2
v 0.2 1.4 -0.4
v 0.2 1.5 -0.2
v 0.2 1.5 -0.4
v 0.2 1.6 -0.2
v 0.2 1.6 -0.4
v 0.2 1.7 -0.2
v 0.2 1.7 -0.4
v 0.4 1 0.6
v 0.4 1 0.5
v 0.4 1 0.4
v 0.4 1 -5.96046e-08
v 0.4 1 -0.1
v 0.4 1 -0.2
v 0.4 1.4 0.4
v 0.4 1.4 0.3
v 0.4 1.4 0.0999999
v 0.4 1.4 -5.96046e-08
v 0.4 1.5 0.3
v 0.4 1.5 0.0999999
v 0.4 1.6 0.5
v 0.4 1.6 -0.1
v 0.4 1.7 0.6
v 0.4 1.7 -0.2
v -0.3 1.6 0.6
v -0.3 1.7 0.6
v -0.2 1.5 0.6
v -0.2 1.6 0.6
v -0.1 1.4 0.6
v -0.1 1.5 0.6
v -0.1 1.6 0.6
v 5.96046e-08 1.3 0.6
v 5.96046e-08 1.4 0.6
v 5.96046e-08 1.5 0.6
v 0.1 1.2 0.6
v 0.1 1.3 0.6
v 0.1 1.4 0.6
v 0.2 1.1 0.6
v 0.2 1.2 0.6
v 0.2 1.3 0.6
v 0.3 1 0.6
v 0.3 1.1 0.6
v 0.3 1.2 0.6
v 0.3 1.6 0.6
v 0.4 1 0.6
v 0.4 1.7 0.6
v -0.4 1.6 0.5
v -0.4 1.7 0.5
v -0.3 1.6 0.5
v -0.3 1.7 0.5
v -0.5 1.6 0.4
v -0.5 1.7 0.4
v -0.4 1.6 0.4
v -0.4 1.7 0.4
v -0.6 1.6 0.2
v -0.6 1.7 0.2
v -0.5 1.6 0.2
v -0.5 1.7 0.2
v -0.7 1.6 0.0999999
v -0.7 1.7 0.0999999
v -0.6 1.6 0.0999999
v -0.6 1.7 0.0999999
v 0.3 1.4 0.0999999
v 0.3 1.5 0.0999999
v 0.4 1.4 0.0999999
v 0.4 1.5 0.0999999
v -0.7 1.5 -5.96046e-08
v -0.7 1.6 -5.96046e-08
v -0.6 1.5 -5.96046e-08
v -0.6 1.6 -5.96046e-08
v 0.3 1 -5.96046e-08
v 0.3 1.4 -5.96046e-08
v 0.4 1 -5.96046e-08
v 0.4 1.4 -5.96046e-08
v -0.7 1.4 -0.1
v -0.7 1.5 -0.1
v -0.6 1.4 -0.1
v -0.6 1.5 -0.1
v 0.2 1.3 -0.1
v 0.2 1.4 -0.1
v 0.2 1.6 -0.1
v 0.3 1.3 -0.1
v 0.3 1.4 -0.1
v 0.3 1.6 -0.1
v -0.7 1.3 -0.2
v -0.7 1.4 -0.2
v -0.6 1.3 -0.2
v -0.6 1.4 -0.2
v 0.1 1.4 -0.2
v 0.1 1.5 -0.2
v 0.1 1.6 -0.2
v 0.2 1.4 -0.2
v 0.2 1.5 -0.2
v 0.2 1.6 -0.2
v -0.7 1.2 -0.3
v -0.7 1.3 -0.3
v -0.6 1.2 -0.3
v -0.6 1.3 -0.3
v -0.7 1.1 -0.4
v -0.7 1.2 -0.4
v -0.6 1.1 -0.4
v -0.6 1.2 -0.4
v 5.96046e-08 1.3 -0.4
v 5.96046e-08 1.4 -0.4
v 5.96046e-08 1.6 -0.4
v 0.1 1.3 -0.4
v 0.1 1.4 -0.4
v 0.1 1.5 -0.4
v 0.1 1.6 -0.4
v -0.7 1 -0.5
v -0.7 1.1 -0.5
v -0.6 1 -0.5
v -0.6 1.1 -0.5
v -0.6 1.2 -0.5
v -0.6 1.6 -0.5
v -0.5 1 -0.5
v -0.5 1.4 -0.5
v -0.5 1.6 -0.5
v -0.4 1.4 -0.5
v -0.4 1.5 -0.5
v -0.4 1.6 -0.5
v -0.2 1.4 -0.5
v -0.2 1.5 -0.5
v -0.1 1 -0.5
v -0.1 1.4 -0.5
v -0.1 1.6 -0.5
v 5.96046e-08 1 -0.5
v 5.96046e-08 1.3 -0.5
v 5.96046e-08 1.4 -0.5
v 5.96046e-08 1.6 -0.5
v 0.1 1 -0.5
v 0.1 1.3 -0.5
v -0.2 1.5 0.5
v -0.2 1.6 0.5
v -0.1 1.4 0.5
v -0.1 1.5 0.5
v -0.1 1.6 0.5
v 5.96046e-08 1.3 0.5
v 5.96046e-08 1.4 0.5
v 5.96046e-08 1.5 0.5
v 5.96046e-08 1.6 0.5
v 0.1 1.2 0.5
v 0.1 1.3 0.5
v 0.1 1.4 0.5
v 0.2 1.1 0.5
v 0.2 1.2 0.5
v 0.2 1.3 0.5
v 0.3 1.1 0.5
v 0.3 1.2 0.5
v 0.3 1.6 0.5
v 0.3 1 0.4
v 0.3 1.4 0.4
v 0.4 1 0.4
v 0.4 1.4 0.4
v 0.3 1.4 0.3
v 0.3 1.5 0.3
v 0.4 1.4 0.3
v 0.4 1.5 0.3
v 0.2 1.3 -0.2
v 0.2 1.4 -0.2
v 0.2 1.5 -0.2
v 0.2 1.6 -0.2
v 0.2 1.7 -0.2
v 0.3 1 -0.2
v 0.3 1.3 -0.2
v 0.3 1.4 -0.2
v 0.3 1.6 -0.2
v 0.4 1 -0.2
v 0.4 1.7 -0.2
v 0.1 1.4 -0.4
v 0.1 1.5 -0.4
v 0.1 1.6 -0.4
v 0.1 1.7 -0.4
v 0.2 1.4 -0.4
v 0.2 1.5 -0.4
v 0.2 1.6 -0.4
v 0.2 1.7 -0.4
v -0.7 1 -0.6
v -0.7 1.7 -0.6
v -0.6 1 -0.6
v -0.6 1.6 -0.6
v -0.5 1 -0.6
v -0.5 1.4 -0.6
v -0.4 1.4 -0.6
v -0.4 1.5 -0.6
v -0.2 1.4 -0.6
v -0.2 1.5 -0.6
v -0.1 1 -0.6
v -0.1 1.4 -0.6
v 5.96046e-08 1 -0.6
v 5.96046e-08 1.6 -0.6
v 0.1 1 -0.6
v 0.1 1.7 -0.6
v 0.3 1 0.6
v 0.4 1 0.6
v 0.3 1 0.5
v 0.4 1 0.5
v 0.3 1 0.4
v 0.4 1 0.4
v 0.3 1 -5.96046e-08
v 0.4 1 -5.96046e-08
v 0.3 1 -0.1
v 0.4 1 -0.1
v 0.3 1 -0.2
v 0.4 1 -0.2
v -0.7 1 -0.5
v -0.6 1 -0.5
v -0.5 1 -0.5
v -0.1 1 -0.5
v 5.96046e-08 1 -0.5
v 0.1 1 -0.5
v -0.7 1 -0.6
v -0.6 1 -0.6
v -0.5 1 -0.6
v -0.1 1 -0.6
v 5.96046e-08 1 -0.6
v 0.1 1 -0.6
v 0.2 1.1 0.6
v 0.3 1.1 0.6
v 0.2 1.1 0.5
v 0.3 1.1 0.5
v -0.7 1.1 -0.4
v -0.6 1.1 -0.4
v -0.7 1.1 -0.5
v -0.6 1.1 -0.5
v 0.1 1.2 0.6
v 0.2 1.2 0.6
v 0.1 1.2 0.5
v 0.2 1.2 0.5
v -0.7 1.2 -0.3
v -0.6 1.2 -0.3
v -0.7 1.2 -0.4
v -0.6 1.2 -0.4
v 5.96046e-08 1.3 0.6
v 0.1 1.3 0.6
v 5.96046e-08 1.3 0.5
v 0.1 1.3 0.5
v 0.2 1.3 -0.1
v 0.3 1.3 -0.1
v -0.7 1.3 -0.2
v -0.6 1.3 -0.2
v 0.2 1.3 -0.2
v 0.3 1.3 -0.2
v -0.7 1.3 -0.3
v -0.6 1.3 -0.3
v 5.96046e-08 1.3 -0.4
v 0.1 1.3 -0.4
v 5.96046e-08 1.3 -0.5
v 0.1 1.3 -0.5
v -0.1 1.4 0.6
v 5.96046e-08 1.4 0.6
v -0.1 1.4 0.5
v 5.96046e-08 1.4 0.5
v 0.3 1.4 0.4
v 0.4 1.4 0.4
v 0.3 1.4 0.3
v 0.4 1.4 0.3
v 0.3 1.4 0.0999999
v 0.4 1.4 0.0999999
v 0.3 1.4 -5.96046e-08
v 0.4 1.4 -5.96046e-08
v -0.7 1.4 -0.1
v -0.6 1.4 -0.1
v -0.7 1.4 -0.2
v -0.6 1.4 -0.2
v 0.1 1.4 -0.2
v 0.2 1.4 -0.2
v 0.1 1.4 -0.4
v 0.2 1.4 -0.4
v -0.5 1.4 -0.5
v -0.4 1.4 -0.5
v -0.2 1.4 -0.5
v -0.1 1.4 -0.5
v -0.5 1.4 -0.6
v -0.4 1.4 -0.6
v -0.2 1.4 -0.6
v -0.1 1.4 -0.6
v -0.2 1.5 0.6
v -0.1 1.5 0.6
v -0.2 1.5 0.5
v -0.1 1.5 0.5
v 0.3 1.5 0.3
v 0.4 1.5 0.3
v 0.3 1.5 0.0999999
v 0.4 1.5 0.0999999
v -0.7 1.5 -5.96046e-08
v -0.6 1.5 -5.96046e-08
v -0.7 1.5 -0.1
v -0.6 1.5 -0.1
v -0.4 1.5 -0.5
v -0.2 1.5 -0.5
v -0.4 1.5 -0.6
v -0.2 1.5 -0.6
v -0.3 1.6 0.6
v -0.2 1.6 0.6
v -0.4 1.6 0.5
v -0.3 1.6 0.5
v -0.2 1.6 0.5
v -0.1 1.6 0.5
v 5.96046e-08 1.6 0.5
v 0.3 1.6 0.5
v -0.5 1.6 0.4
v -0.4 1.6 0.4
v -0.3 1.6 0.4
v -0.2 1.6 0.4
v -0.1 1.6 0.4
v 5.96046e-08 1.6 0.4
v 0.2 1.6 0.4
v -0.2 1.6 0.3
v -0.1 1.6 0.3
v 5.96046e-08 1.6 0.3
v 0.2 1.6 0.3
v -0.6 1.6 0.2
v -0.5 1.6 0.2
v -0.4 1.6 0.2
v -0.2 1.6 0.2
v 5.96046e-08 1.6 0.2
v 0.2 1.6 0.2
v 0.3 1.6 0.2
v -0.7 1.6 0.0999999
v -0.6 1.6 0.0999999
v -0.5 1.6 0.0999999
v -0.3 1.6 0.0999999
v -0.2 1.6 0.0999999
v -0.1 1.6 0.0999999
v 5.96046e-08 1.6 0.0999999
v -0.7 1.6 -5.96046e-08
v -0.6 1.6 -5.96046e-08
v -0.4 1.6 -5.96046e-08
v -0.3 1.6 -5.96046e-08
v -0.1 1.6 -5.96046e-08
v 0.1 1.6 -5.96046e-08
v -0.6 1.6 -0.1
v -0.4 1.6 -0.1
v -0.3 1.6 -0.1
v -0.1 1.6 -0.1
v 0.1 1.6 -0.1
v 0.2 1.6 -0.1
v 0.3 1.6 -0.1
v -0.6 1.6 -0.2
v -0.3 1.6 -0.2
v -0.2 1.6 -0.2
v 5.96046e-08 1.6 -0.2
v 0.1 1.6 -0.2
v 0.2 1.6 -0.2
v -0.6 1.6 -0.3
v -0.5 1.6 -0.3
v -0.4 1.6 -0.3
v -0.3 1.6 -0.3
v -0.2 1.6 -0.3
v 5.96046e-08 1.6 -0.3
v -0.1 1.6 -0.4
v 5.96046e-08 1.6 -0.4
v 0.1 1.6 -0.4
v -0.6 1.6 -0.5
v -0.5 1.6 -0.5
v -0.4 1.6 -0.5
v -0.1 1.6 -0.5
v 5.96046e-08 1.6 -0.5
v -0.3 1.7 0.6
v 0.4 1.7 0.6
v -0.4 1.7 0.5
v -0.3 1.7 0.5
v -0.2 1.7 0.5
v -0.1 1.7 0.5
v 5.96046e-08 1.7 0.5
v 0.3 1.7 0.5
v -0.5 1.7 0.4
v -0.4 1.7 0.4
v -0.3 1.7 0.4
v -0.2 1.7 0.4
v -0.1 1.7 0.4
v 5.96046e-08 1.7 0.4
v 0.2 1.7 0.4
v -0.2 1.7 0.3
v -0.1 1.7 0.3
v 5.96046e-08 1.7 0.3
v 0.2 1.7 0.3
v -0.6 1.7 0.2
v -0.5 1.7 0.2
v -0.4 1.7 0.2
v -0.2 1.7 0.2
v 5.96046e-08 1.7 0.2
v 0.2 1.7 0.2
v 0.3 1.7 0.2
v -0.7 1.7 0.0999999
v -0.6 1.7 0.0999999
v -0.5 1.7 0.0999999
v -0.3 1.7 0.0999999
v -0.2 1.7 0.0999999
v -0.1 1.7 0.0999999
v 5.96046e-08 1.7 0.0999999
v -0.4 1.7 -5.96046e-08
v -0.3 1.7 -5.96046e-08
v -0.1 1.7 -5.96046e-08
v 0.1 1.7 -5.96046e-08
v -0.4 1.7 -0.1
v -0.3 1.7 -0.1
v -0.1 1.7 -0.1
v 0.1 1.7 -0.1
v 0.2 1.7 -0.1
v 0.3 1.7 -0.1
v -0.6 1.7 -0.2
v -0.3 1.7 -0.2
v -0.2 1.7 -0.2
v 5.96046e-08 1.7 -0.2
v 0.1 1.7 -0.2
v 0.2 1.7 -0.2
v 0.4 1.7 -0.2
v -0.6 1.7 -0.3
v -0.5 1.7 -0.3
v -0.4 1.7 -0.3
v -0.3 1.7 -0.3
v -0.2 1.7 -0.3
v 5.96046e-08 1.7 -0.3
v -0.1 1.7 -0.4
v 5.96046e-08 1.7 -0.4
v 0.1 1.7 -0.4
v 0.2 1.7 -0.4
v -0.6 1.7 -0.5
v -0.5 1.7 -0.5
v -0.4 1.7 -0.5
v -0.1 1.7 -0.5
v 5.96046e-08 1.7 -0.5
v -0.7 1.7 -0.6
v 0.1 1.7 -0.6

# faces
f 4/4/1 2/4/1 1/4/1
f 6/4/1 4/4/1 3/4/1
f 7/4/1 2/4/1 4/4/1
f 7/4/1 4/4/1 6/4/1
f 9/4/1 6/4/1 5/4/1
f 10/3/1 7/3/1 6/3/1
f 10/4/1 6/4/1 9/4/1
f 12/4/1 9/4/1 8/4/1
f 13/3/1 10/3/1 9/3/1
f 13/4/1 9/4/1 12/4/1
f 15/4/1 12/4/1 11/4/1
f 16/3/1 13/3/1 12/3/1
f 16/4/1 12/4/1 15/4/1
f 18/4/1 15/4/1 14/4/1
f 19/3/1 16/3/1 15/3/1
f 19/4/1 15/4/1 18/4/1
f 20/4/1 2/4/1 7/4/1
f 20/3/1 16/3/1 19/3/1
f 20/3/1 7/3/1 10/3/1
f 20/3/1 10/3/1 13/3/1
f 20/3/1 13/3/1 16/3/1
f 21/4/1 19/4/1 18/4/1
f 21/4/1 18/4/1 17/4/1
f 21/4/1 20/4/1 19/4/1
f 22/4/1 2/4/1 20/4/1
f 22/4/1 20/4/1 21/4/1
f 25/4/1 24/4/1 23/4/1
f 26/4/1 24/4/1 25/4/1
f 29/4/1 28/4/1 27/4/1
f 30/4/1 28/4/1 29/4/1
f 33/4/1 32/4/1 31/4/1
f 34/4/1 32/4/1 33/4/1
f 37/4/1 36/4/1 35/4/1
f 38/4/1 36/4/1 37/4/1
f 43/3/1 40/3/1 39/3/1
f 44/3/1 40/3/1 43/3/1
f 45/4/1 42/4/1 41/4/1
f 46/4/1 42/4/1 45/4/1
f 51/3/1 48/3/1 47/3/1
f 52/3/1 48/3/1 51/3/1
f 53/4/1 50/4/1 49/4/1
f 54/4/1 50/4/1 53/4/1
f 59/4/1 56/4/1 55/4/1
f 60/4/1 56/4/1 59/4/1
f 61/4/1 58/4/1 57/4/1
f 62/4/1 58/4/1 61/4/1
f 63/3/1 62/3/1 61/3/1
f 64/3/1 62/3/1 63/3/1
f 67/4/1 66/4/1 65/4/1
f 68/4/1 66/4/1 67/4/1
f 71/4/1 70/4/1 69/4/1
f 72/4/1 70/4/1 71/4/1
f 73/3/1 72/3/1 71/3/1
f 74/3/1 72/3/1 73/3/1
f 77/4/1 76/4/1 75/4/1
f 78/4/1 76/4/1 77/4/1
f 81/4/1 80/4/1 79/4/1
f 82/4/1 80/4/1 81/4/1
f 83/3/1 82/3/1 81/3/1
f 84/3/1 83/3/1 81/3/1
f 85/3/1 83/3/1 84/3/1
f 92/4/1 87/4/1 86/4/1
f 93/3/1 88/3/1 87/3/1
f 93/4/1 87/4/1 92/4/1
f 94/3/1 88/3/1 93/3/1
f 95/4/1 91/4/1 90/4/1
f 95/3/1 90/3/1 89/3/1
f 96/4/1 91/4/1 95/4/1
f 97/3/1 88/3/1 94/3/1
f 100/3/1 95/3/1 89/3/1
f 101/3/1 95/3/1 100/3/1
f 102/3/1 98/3/1 97/3/1
f 103/3/1 100/3/1 99/3/1
f 103/3/1 101/3/1 100/3/1
f 104/3/1 97/3/1 94/3/1
f 104/3/1 103/3/1 102/3/1
f 104/3/1 102/3/1 97/3/1
f 105/3/1 103/3/1 104/3/1
f 106/3/1 101/3/1 103/3/1
f 106/3/1 103/3/1 105/3/1
f 107/4/2 108/4/2 110/4/2
f 110/4/2 108/4/2 111/4/2
f 109/4/2 110/4/2 113/4/2
f 110/3/2 111/3/2 114/3/2
f 113/4/2 110/4/2 114/4/2
f 112/4/2 113/4/2 116/4/2
f 113/3/2 114/3/2 117/3/2
f 116/4/2 113/4/2 117/4/2
f 115/4/2 116/4/2 119/4/2
f 116/3/2 117/3/2 120/3/2
f 119/4/2 116/4/2 120/4/2
f 118/4/2 119/4/2 121/4/2
f 119/3/2 120/3/2 122/3/2
f 121/4/2 119/4/2 122/4/2
f 120/3/2 117/3/2 123/3/2
f 122/3/2 120/3/2 123/3/2
f 117/3/2 114/3/2 124/3/2
f 123/3/2 117/3/2 124/3/2
f 114/3/2 111/3/2 125/3/2
f 124/3/2 114/3/2 125/3/2
f 126/3/2 127/3/2 128/3/2
f 128/3/2 127/3/2 129/3/2
f 130/3/2 131/3/2 132/3/2
f 132/3/2 131/3/2 133/3/2
f 134/4/2 135/4/2 137/4/2
f 136/4/2 137/4/2 138/4/2
f 137/4/2 135/4/2 139/4/2
f 138/4/2 137/4/2 139/4/2
f 138/3/2 139/3/2 140/3/2
f 140/3/2 139/3/2 141/3/2
f 139/4/2 135/4/2 142/4/2
f 141/3/2 139/3/2 142/3/2
f 141/4/2 142/4/2 143/4/2
f 142/4/2 135/4/2 144/4/2
f 143/4/2 142/4/2 144/4/2
f 145/4/2 146/4/2 147/4/2
f 147/4/2 146/4/2 148/4/2
f 147/3/2 148/3/2 149/3/2
f 149/3/2 148/3/2 150/3/2
f 149/4/2 150/4/2 151/4/2
f 151/4/2 150/4/2 152/4/2
f 154/3/2 155/3/2 159/3/2
f 156/3/2 157/3/2 162/3/2
f 159/3/2 160/3/2 163/3/2
f 161/3/2 162/3/2 164/3/2
f 153/4/2 154/4/2 165/4/2
f 163/3/2 164/3/2 165/3/2
f 159/3/2 163/3/2 165/3/2
f 154/3/2 159/3/2 165/3/2
f 164/3/2 162/3/2 166/3/2
f 165/3/2 164/3/2 166/3/2
f 157/4/2 158/4/2 166/4/2
f 162/3/2 157/3/2 166/3/2
f 153/4/2 165/4/2 167/4/2
f 165/4/2 166/4/2 167/4/2
f 166/4/2 158/4/2 168/4/2
f 167/4/2 166/4/2 168/4/2
f 172/4/3 170/4/3 169/4/3
f 174/4/3 172/4/3 171/4/3
f 175/4/3 170/4/3 172/4/3
f 175/4/3 172/4/3 174/4/3
f 177/4/3 174/4/3 173/4/3
f 178/3/3 175/3/3 174/3/3
f 178/4/3 174/4/3 177/4/3
f 180/4/3 177/4/3 176/4/3
f 181/3/3 178/3/3 177/3/3
f 181/4/3 177/4/3 180/4/3
f 183/4/3 180/4/3 179/4/3
f 184/3/3 181/3/3 180/3/3
f 184/4/3 180/4/3 183/4/3
f 186/4/3 183/4/3 182/4/3
f 187/3/3 184/3/3 183/3/3
f 187/4/3 183/4/3 186/4/3
f 188/4/3 170/4/3 175/4/3
f 188/3/3 184/3/3 187/3/3
f 188/3/3 175/3/3 178/3/3
f 188/3/3 178/3/3 181/3/3
f 188/3/3 181/3/3 184/3/3
f 189/4/3 187/4/3 186/4/3
f 189/4/3 186/4/3 185/4/3
f 189/4/3 188/4/3 187/4/3
f 190/4/3 170/4/3 188/4/3
f 190/4/3 188/4/3 189/4/3
f 193/4/3 192/4/3 191/4/3
f 194/4/3 192/4/3 193/4/3
f 197/4/3 196/4/3 195/4/3
f 198/4/3 196/4/3 197/4/3
f 201/4/3 200/4/3 199/4/3
f 202/4/3 200/4/3 201/4/3
f 205/4/3 204/4/3 203/4/3
f 206/4/3 204/4/3 205/4/3
f 209/3/3 208/3/3 207/3/3
f 210/3/3 208/3/3 209/3/3
f 213/4/3 212/4/3 211/4/3
f 214/4/3 212/4/3 213/4/3
f 217/3/3 216/3/3 215/3/3
f 218/3/3 216/3/3 217/3/3
f 221/4/3 220/4/3 219/4/3
f 222/4/3 220/4/3 221/4/3
f 226/4/3 224/4/3 223/4/3
f 227/3/3 225/3/3 224/3/3
f 227/4/3 224/4/3 226/4/3
f 228/3/3 225/3/3 227/3/3
f 231/4/3 230/4/3 229/4/3
f 232/4/3 230/4/3 231/4/3
f 236/4/3 234/4/3 233/4/3
f 237/3/3 235/3/3 234/3/3
f 237/4/3 234/4/3 236/4/3
f 238/3/3 235/3/3 237/3/3
f 241/4/3 240/4/3 239/4/3
f 242/4/3 240/4/3 241/4/3
f 245/4/3 244/4/3 243/4/3
f 246/4/3 244/4/3 245/4/3
f 250/4/3 248/4/3 247/4/3
f 251/3/3 249/3/3 248/3/3
f 251/4/3 248/4/3 250/4/3
f 252/3/3 249/3/3 251/3/3
f 253/3/3 249/3/3 252/3/3
f 256/4/3 255/4/3 254/4/3
f 257/4/3 255/4/3 256/4/3
f 260/3/3 257/3/3 256/3/3
f 260/3/3 259/3/3 258/3/3
f 260/3/3 258/3/3 257/3/3
f 261/3/3 259/3/3 260/3/3
f 262/3/3 259/3/3 261/3/3
f 263/3/3 262/3/3 261/3/3
f 264/3/3 262/3/3 263/3/3
f 265/3/3 262/3/3 264/3/3
f 267/3/3 265/3/3 264/3/3
f 269/3/3 267/3/3 266/3/3
f 270/3/3 265/3/3 267/3/3
f 270/3/3 267/3/3 269/3/3
f 271/3/3 269/3/3 268/3/3
f 271/3/3 270/3/3 269/3/3
f 272/3/3 270/3/3 271/3/3
f 273/3/3 270/3/3 272/3/3
f 274/3/3 270/3/3 273/3/3
f 275/4/3 272/4/3 271/4/3
f 276/4/3 272/4/3 275/4/3
f 277/4/4 278/4/4 280/4/4
f 280/4/4 278/4/4 281/4/4
f 279/4/4 280/4/4 283/4/4
f 280/3/4 281/3/4 284/3/4
f 283/4/4 280/4/4 284/4/4
f 284/3/4 281/3/4 285/3/4
f 282/4/4 283/4/4 287/4/4
f 283/3/4 284/3/4 288/3/4
f 284/3/4 285/3/4 288/3/4
f 287/4/4 283/4/4 288/4/4
f 286/4/4 287/4/4 290/4/4
f 287/3/4 288/3/4 291/3/4
f 290/4/4 287/4/4 291/4/4
f 289/4/4 290/4/4 292/4/4
f 290/3/4 291/3/4 293/3/4
f 292/4/4 290/4/4 293/4/4
f 288/3/4 285/3/4 294/3/4
f 293/3/4 291/3/4 294/3/4
f 291/3/4 288/3/4 294/3/4
f 295/3/4 296/3/4 297/3/4
f 297/3/4 296/3/4 298/3/4
f 299/3/4 300/3/4 301/3/4
f 301/3/4 300/3/4 302/3/4
f 303/4/4 304/4/4 309/4/4
f 304/3/4 305/3/4 310/3/4
f 305/3/4 306/3/4 310/3/4
f 309/4/4 304/4/4 310/4/4
f 306/4/4 307/4/4 311/4/4
f 310/3/4 306/3/4 311/3/4
f 309/4/4 310/4/4 312/4/4
f 308/4/4 309/4/4 312/4/4
f 310/4/4 311/4/4 312/4/4
f 311/4/4 307/4/4 313/4/4
f 312/4/4 311/4/4 313/4/4
f 314/4/4 315/4/4 318/4/4
f 315/3/4 316/3/4 319/3/4
f 318/4/4 315/4/4 319/4/4
f 316/4/4 317/4/4 320/4/4
f 319/3/4 316/3/4 320/3/4
f 320/4/4 317/4/4 321/4/4
f 322/4/4 323/4/4 324/4/4
f 324/4/4 323/4/4 325/4/4
f 324/3/4 325/3/4 326/3/4
f 326/3/4 325/3/4 327/3/4
f 327/3/4 325/3/4 328/3/4
f 328/3/4 325/3/4 329/3/4
f 329/3/4 325/3/4 331/3/4
f 330/3/4 331/3/4 333/3/4
f 332/3/4 333/3/4 334/3/4
f 325/4/4 323/4/4 335/4/4
f 334/3/4 333/3/4 335/3/4
f 331/3/4 325/3/4 335/3/4
f 333/3/4 331/3/4 335/3/4
f 334/4/4 335/4/4 336/4/4
f 335/4/4 323/4/4 337/4/4
f 336/4/4 335/4/4 337/4/4
f 340/4/5 339/4/5 338/4/5
f 341/4/5 339/4/5 340/4/5
f 342/3/5 341/3/5 340/3/5
f 343/3/5 341/3/5 342/3/5
f 346/3/5 345/3/5 344/3/5
f 347/3/5 345/3/5 346/3/5
f 348/4/5 347/4/5 346/4/5
f 349/4/5 347/4/5 348/4/5
f 356/4/5 351/4/5 350/4/5
f 357/3/5 352/3/5 351/3/5
f 357/4/5 351/4/5 356/4/5
f 358/3/5 352/3/5 357/3/5
f 359/3/5 354/3/5 353/3/5
f 360/4/5 355/4/5 354/4/5
f 360/3/5 354/3/5 359/3/5
f 361/4/5 355/4/5 360/4/5
f 364/4/5 363/4/5 362/4/5
f 365/4/5 363/4/5 364/4/5
f 368/4/5 367/4/5 366/4/5
f 369/4/5 367/4/5 368/4/5
f 372/4/5 371/4/5 370/4/5
f 373/4/5 371/4/5 372/4/5
f 376/4/5 375/4/5 374/4/5
f 377/4/5 375/4/5 376/4/5
f 380/4/5 379/4/5 378/4/5
f 381/4/5 379/4/5 380/4/5
f 386/4/5 383/4/5 382/4/5
f 387/4/5 383/4/5 386/4/5
f 388/4/5 385/4/5 384/4/5
f 389/4/5 385/4/5 388/4/5
f 392/4/5 391/4/5 390/4/5
f 393/4/5 391/4/5 392/4/5
f 396/4/5 395/4/5 394/4/5
f 397/4/5 395/4/5 396/4/5
f 400/3/5 399/3/5 398/3/5
f 401/3/5 399/3/5 400/3/5
f 404/3/5 403/3/5 402/3/5
f 405/3/5 403/3/5 404/3/5
f 408/4/5 407/4/5 406/4/5
f 409/4/5 407/4/5 408/4/5
f 412/4/5 411/4/5 410/4/5
f 413/4/5 411/4/5 412/4/5
f 418/3/5 415/3/5 414/3/5
f 419/3/5 415/3/5 418/3/5
f 420/3/5 417/3/5 416/3/5
f 421/3/5 417/3/5 420/3/5
f 424/4/5 423/4/5 422/4/5
f 425/4/5 423/4/5 424/4/5
f 428/3/5 427/3/5 426/3/5
f 429/3/5 427/3/5 428/3/5
f 432/4/5 431/4/5 430/4/5
f 433/4/5 431/4/5 432/4/5
f 436/3/5 435/3/5 434/3/5
f 437/3/5 435/3/5 436/3/5
f 441/4/5 439/4/5 438/4/5
f 442/4/5 439/4/5 441/4/5
f 447/4/5 441/4/5 440/4/5
f 448/2/5 442/2/5 441/2/5
f 448/4/5 441/4/5 447/4/5
f 449/1/5 443/1/5 442/1/5
f 449/2/5 442/2/5 448/2/5
f 450/2/5 444/2/5 443/2/5
f 450/1/5 443/1/5 449/1/5
f 451/1/5 445/1/5 444/1/5
f 451/2/5 444/2/5 450/2/5
f 452/1/5 445/1/5 451/1/5
f 453/2/5 450/2/5 449/2/5
f 453/1/5 448/1/5 447/1/5
f 453/1/5 449/1/5 448/1/5
f 454/1/5 451/1/5 450/1/5
f 454/2/5 450/2/5 453/2/5
f 455/2/5 452/2/5 451/2/5
f 455/1/5 451/1/5 454/1/5
f 456/1/5 445/1/5 452/1/5
f 456/2/5 452/2/5 455/2/5
f 458/4/5 447/4/5 446/4/5
f 459/1/5 455/1/5 454/1/5
f 459/1/5 454/1/5 453/1/5
f 459/4/5 447/4/5 458/4/5
f 459/1/5 453/1/5 447/1/5
f 459/1/5 456/1/5 455/1/5
f 460/1/5 456/1/5 459/1/5
f 461/1/5 456/1/5 460/1/5
f 462/1/5 445/1/5 456/1/5
f 462/1/5 456/1/5 461/1/5
f 463/1/5 445/1/5 462/1/5
f 465/4/5 458/4/5 457/4/5
f 466/1/5 459/1/5 458/1/5
f 466/1/5 460/1/5 459/1/5
f 466/4/5 458/4/5 465/4/5
f 467/1/5 460/1/5 466/1/5
f 468/2/5 461/2/5 460/2/5
f 468/1/5 460/1/5 467/1/5
f 469/2/5 461/2/5 468/2/5
f 470/1/5 462/1/5 461/1/5
f 470/2/5 461/2/5 469/2/5
f 471/4/5 465/4/5 464/4/5
f 472/1/5 467/1/5 466/1/5
f 472/4/5 465/4/5 471/4/5
f 472/1/5 466/1/5 465/1/5
f 473/1/5 467/1/5 472/1/5
f 474/2/5 469/2/5 468/2/5
f 474/1/5 467/1/5 473/1/5
f 474/2/5 468/2/5 467/2/5
f 475/1/5 470/1/5 469/1/5
f 475/2/5 469/2/5 474/2/5
f 476/1/5 462/1/5 470/1/5
f 476/1/5 470/1/5 475/1/5
f 477/1/5 473/1/5 472/1/5
f 478/2/5 474/2/5 473/2/5
f 478/1/5 473/1/5 477/1/5
f 479/1/5 475/1/5 474/1/5
f 479/2/5 474/2/5 478/2/5
f 480/2/5 476/2/5 475/2/5
f 480/1/5 475/1/5 479/1/5
f 481/1/5 462/1/5 476/1/5
f 481/2/5 476/2/5 480/2/5
f 482/2/5 463/2/5 462/2/5
f 482/1/5 462/1/5 481/1/5
f 483/2/5 463/2/5 482/2/5
f 484/1/5 478/1/5 477/1/5
f 484/1/5 480/1/5 479/1/5
f 484/1/5 482/1/5 481/1/5
f 484/1/5 479/1/5 478/1/5
f 484/1/5 481/1/5 480/1/5
f 485/1/5 482/1/5 484/1/5
f 486/1/5 482/1/5 485/1/5
f 487/1/5 482/1/5 486/1/5
f 488/1/5 482/1/5 487/1/5
f 489/1/5 482/1/5 488/1/5
f 490/2/5 485/2/5 484/2/5
f 491/2/5 485/2/5 490/2/5
f 492/2/5 485/2/5 491/2/5
f 493/1/5 486/1/5 485/1/5
f 493/2/5 485/2/5 492/2/5
f 494/2/5 487/2/5 486/2/5
f 494/1/5 486/1/5 493/1/5
f 495/1/5 488/1/5 487/1/5
f 495/2/5 487/2/5 494/2/5
f 496/1/5 493/1/5 492/1/5
f 496/1/5 494/1/5 493/1/5
f 496/1/5 495/1/5 494/1/5
f 497/1/5 488/1/5 495/1/5
f 497/1/5 495/1/5 496/1/5
f 498/1/5 488/1/5 497/1/5
f 499/1/5 491/1/5 490/1/5
f 500/2/5 492/2/5 491/2/5
f 500/1/5 491/1/5 499/1/5
f 501/1/5 496/1/5 492/1/5
f 501/2/5 492/2/5 500/2/5
f 502/2/5 497/2/5 496/2/5
f 502/1/5 496/1/5 501/1/5
f 503/2/5 497/2/5 502/2/5
f 504/4/6 505/4/6 507/4/6
f 507/4/6 505/4/6 508/4/6
f 508/4/6 505/4/6 509/4/6
f 509/4/6 505/4/6 510/4/6
f 510/4/6 505/4/6 511/4/6
f 506/4/6 507/4/6 513/4/6
f 507/2/6 508/2/6 514/2/6
f 513/4/6 507/4/6 514/4/6
f 508/1/6 509/1/6 515/1/6
f 514/2/6 508/2/6 515/2/6
f 509/2/6 510/2/6 516/2/6
f 515/1/6 509/1/6 516/1/6
f 510/1/6 511/1/6 517/1/6
f 516/2/6 510/2/6 517/2/6
f 517/1/6 511/1/6 518/1/6
f 513/1/6 514/1/6 519/1/6
f 514/1/6 515/1/6 519/1/6
f 515/2/6 516/2/6 519/2/6
f 516/1/6 517/1/6 520/1/6
f 519/2/6 516/2/6 520/2/6
f 517/2/6 518/2/6 521/2/6
f 520/1/6 517/1/6 521/1/6
f 518/1/6 511/1/6 522/1/6
f 521/2/6 518/2/6 522/2/6
f 512/4/6 513/4/6 524/4/6
f 520/1/6 521/1/6 525/1/6
f 519/1/6 520/1/6 525/1/6
f 524/4/6 513/4/6 525/4/6
f 513/1/6 519/1/6 525/1/6
f 521/1/6 522/1/6 525/1/6
f 525/1/6 522/1/6 526/1/6
f 526/1/6 522/1/6 527/1/6
f 522/1/6 511/1/6 528/1/6
f 527/1/6 522/1/6 528/1/6
f 511/4/6 505/4/6 529/4/6
f 528/1/6 511/1/6 529/1/6
f 523/4/6 524/4/6 531/4/6
f 524/1/6 525/1/6 532/1/6
f 525/1/6 526/1/6 532/1/6
f 531/4/6 524/4/6 532/4/6
f 532/1/6 526/1/6 533/1/6
f 526/2/6 527/2/6 534/2/6
f 533/1/6 526/1/6 534/1/6
f 534/2/6 527/2/6 535/2/6
f 527/1/6 528/1/6 536/1/6
f 535/2/6 527/2/6 536/2/6
f 532/1/6 533/1/6 537/1/6
f 531/1/6 532/1/6 537/1/6
f 534/2/6 535/2/6 538/2/6
f 537/1/6 533/1/6 538/1/6
f 533/2/6 534/2/6 538/2/6
f 535/1/6 536/1/6 539/1/6
f 538/2/6 535/2/6 539/2/6
f 536/1/6 528/1/6 540/1/6
f 539/1/6 536/1/6 540/1/6
f 531/1/6 537/1/6 541/1/6
f 537/2/6 538/2/6 541/2/6
f 538/1/6 539/1/6 542/1/6
f 541/2/6 538/2/6 542/2/6
f 539/2/6 540/2/6 543/2/6
f 542/1/6 539/1/6 543/1/6
f 540/1/6 528/1/6 544/1/6
f 543/2/6 540/2/6 544/2/6
f 528/2/6 529/2/6 545/2/6
f 544/1/6 528/1/6 545/1/6
f 529/4/6 505/4/6 546/4/6
f 545/2/6 529/2/6 546/2/6
f 542/1/6 543/1/6 547/1/6
f 531/1/6 541/1/6 547/1/6
f 544/1/6 545/1/6 547/1/6
f 541/1/6 542/1/6 547/1/6
f 543/1/6 544/1/6 547/1/6
f 530/4/6 531/4/6 547/4/6
f 547/1/6 545/1/6 548/1/6
f 548/1/6 545/1/6 549/1/6
f 549/1/6 545/1/6 550/1/6
f 550/1/6 545/1/6 551/1/6
f 545/4/6 546/4/6 552/4/6
f 551/1/6 545/1/6 552/1/6
f 546/4/6 505/4/6 553/4/6
f 552/4/6 546/4/6 553/4/6
f 530/4/6 547/4/6 554/4/6
f 547/2/6 548/2/6 554/2/6
f 554/2/6 548/2/6 555/2/6
f 555/2/6 548/2/6 556/2/6
f 548/1/6 549/1/6 557/1/6
f 556/2/6 548/2/6 557/2/6
f 549/2/6 550/2/6 558/2/6
f 557/1/6 549/1/6 558/1/6
f 550/1/6 551/1/6 559/1/6
f 558/2/6 550/2/6 559/2/6
f 557/1/6 558/1/6 560/1/6
f 556/1/6 557/1/6 560/1/6
f 558/1/6 559/1/6 560/1/6
f 559/1/6 551/1/6 561/1/6
f 560/1/6 559/1/6 561/1/6
f 551/4/6 552/4/6 562/4/6
f 561/1/6 551/1/6 562/1/6
f 562/4/6 552/4/6 563/4/6
f 554/1/6 555/1/6 564/1/6
f 530/4/6 554/4/6 564/4/6
f 555/2/6 556/2/6 565/2/6
f 564/1/6 555/1/6 565/1/6
f 556/1/6 560/1/6 566/1/6
f 565/2/6 556/2/6 566/2/6
f 560/2/6 561/2/6 567/2/6
f 566/1/6 560/1/6 567/1/6
f 561/4/6 562/4/6 568/4/6
f 567/2/6 561/2/6 568/2/6
f 565/4/6 566/4/6 569/4/6
f 564/4/6 565/4/6 569/4/6
f 567/4/6 568/4/6 569/4/6
f 566/4/6 567/4/6 569/4/6
f 530/4/6 564/4/6 569/4/6
f 568/4/6 562/4/6 570/4/6
f 569/4/6 568/4/6 570/4/6
